<svg xmlns="http://www.w3.org/2000/svg" viewBox="0 0 640 512" fill="#3b82f6">
  <path d="M400 0c-9.8 0-19.1 3.6-26.3 10.1L307.4 69.7c-8.4 7.5-14.2 17.6-16.5 28.7L277.6 162l-9.6-1.9c-16.2-3.2-32.7 1.1-44.9 11.8L160 222.7V192c0-17.7-14.3-32-32-32s-32 14.3-32 32v64c0 5.9 1.6 11.4 4.4 16.1L73.8 336H0v128h128V404.7l80-64V416h416V336h-73.8l-26.6-63.9c2.8-4.7 4.4-10.2 4.4-16.1v-64c0-17.7-14.3-32-32-32s-32 14.3-32 32v30.7l-63.3-50.7c-12.1-9.7-28.7-15-45.8-11.8l-9.6 1.9-12.1-62.1c-2.2-11.1-8.1-21.2-16.5-28.7L426.3 10.1C419.1 3.6 409.8 0 400 0z"/>
</svg>
